<svg xmlns="http://www.w3.org/2000/svg" version="1.1" xmlns:xlink="http://www.w3.org/1999/xlink" xmlns:svgjs="http://svgjs.dev/svgjs" width="1280" height="800" preserveAspectRatio="none" viewBox="0 0 1280 800"><g mask="url(&quot;#SvgjsMask2344&quot;)" fill="none"><rect width="1280" height="800" x="0" y="0" fill="url(&quot;#SvgjsRadialGradient2345&quot;)"></rect><path d="M913.121,212.126C962.283,214.469,1001.57,175.399,1025.44,132.357C1048.499,90.778,1055.91,39.952,1031.094,-0.603C1007.157,-39.722,958.921,-53.57,913.121,-51.202C871.609,-49.056,834.517,-25.858,814.538,10.593C795.318,45.659,800.357,86.548,817.928,122.469C838.457,164.436,866.455,209.902,913.121,212.126" fill="rgba(45, 100, 175, 0.5)" class="triangle-float3"></path><path d="M97.311,57.543C121.042,57.973,142.502,42.446,152.847,21.084C162.099,1.978,153.842,-19.108,143.37,-37.573C132.702,-56.384,118.913,-75.844,97.311,-76.846C74.386,-77.909,54.162,-62.383,43.204,-42.218C32.733,-22.949,34.696,-0.143,45.151,19.134C56.184,39.477,74.173,57.124,97.311,57.543" fill="rgba(45, 100, 175, 0.5)" class="triangle-float2"></path><path d="M484.046,693.85C527.131,693.021,564.139,665.252,584.696,627.378C604.293,591.272,602.82,548.128,582.524,512.411C561.969,476.239,525.65,450.268,484.046,450.257C442.424,450.246,406.729,476.572,385.473,512.357C363.694,549.022,356.103,593.909,376.457,631.384C397.67,670.442,439.607,694.705,484.046,693.85" fill="rgba(45, 100, 175, 0.5)" class="triangle-float2"></path><path d="M1046.065,650.664C1104.492,651.746,1163.079,634.1,1196.327,586.043C1234.74,530.52,1251.645,458.485,1220.445,398.612C1187.181,334.777,1118.013,295.47,1046.065,297.688C977.465,299.803,919.963,347.383,889.366,408.819C861.883,464.002,871.62,528.915,905.142,580.652C935.712,627.832,989.857,649.623,1046.065,650.664" fill="rgba(45, 100, 175, 0.5)" class="triangle-float1"></path><path d="M2.024,219.719C31.584,220.572,60.137,205.559,74.478,179.697C88.438,154.521,83.186,124.247,68.785,99.321C54.392,74.41,30.785,53.569,2.024,54.291C-25.807,54.99,-45.947,78.035,-59.173,102.533C-71.616,125.58,-75.654,152.497,-63.53,175.713C-50.472,200.717,-26.172,218.905,2.024,219.719" fill="rgba(45, 100, 175, 0.5)" class="triangle-float2"></path><path d="M817.3,640.848C857.822,643.056,906.045,643.79,926.208,608.571C946.311,573.456,920.069,533.055,898.671,498.714C879.003,467.149,854.392,436.491,817.3,433.786C775.686,430.751,732.501,448.566,712.401,485.13C692.856,520.684,704.51,564.077,727.178,597.726C747.12,627.329,781.659,638.906,817.3,640.848" fill="rgba(45, 100, 175, 0.5)" class="triangle-float2"></path><path d="M877.249,395.356C922.584,395.223,962.081,369.247,986.727,331.197C1014.126,288.897,1032.597,236.454,1009.03,191.906C984.282,145.126,930.161,125.336,877.249,124.253C822.071,123.124,761.734,137.607,735.784,186.315C710.793,233.222,736.863,287.827,766.651,331.844C792.188,369.58,831.684,395.49,877.249,395.356" fill="rgba(45, 100, 175, 0.5)" class="triangle-float1"></path></g><defs><mask id="SvgjsMask2344"><rect width="1280" height="800" fill="#ffffff"></rect></mask><radialGradient cx="50%" cy="50%" r="754.72" gradientUnits="userSpaceOnUse" id="SvgjsRadialGradient2345"><stop stop-color="rgba(58, 78, 107, 1)" offset="0"></stop><stop stop-color="rgba(245, 245, 220, 1)" offset="1"></stop></radialGradient><style>
                @keyframes float1 {
                    0%{transform: translate(0, 0)}
                    50%{transform: translate(-10px, 0)}
                    100%{transform: translate(0, 0)}
                }

                .triangle-float1 {
                    animation: float1 5s infinite;
                }

                @keyframes float2 {
                    0%{transform: translate(0, 0)}
                    50%{transform: translate(-5px, -5px)}
                    100%{transform: translate(0, 0)}
                }

                .triangle-float2 {
                    animation: float2 4s infinite;
                }

                @keyframes float3 {
                    0%{transform: translate(0, 0)}
                    50%{transform: translate(0, -10px)}
                    100%{transform: translate(0, 0)}
                }

                .triangle-float3 {
                    animation: float3 6s infinite;
                }
            </style></defs></svg>